<?xml version="1.0" encoding="UTF-8" standalone="no"?>
<!-- Creator: CorelDRAW X7 -->

<svg
   xmlns:dc="http://purl.org/dc/elements/1.1/"
   xmlns:cc="http://creativecommons.org/ns#"
   xmlns:rdf="http://www.w3.org/1999/02/22-rdf-syntax-ns#"
   xmlns:svg="http://www.w3.org/2000/svg"
   xmlns="http://www.w3.org/2000/svg"
   xmlns:sodipodi="http://sodipodi.sourceforge.net/DTD/sodipodi-0.dtd"
   xmlns:inkscape="http://www.inkscape.org/namespaces/inkscape"
   xml:space="preserve"
   width="256"
   height="256"
   version="1.1"
   style="fill-rule:evenodd"
   viewBox="0 0 7224.8889 7224.8889"
   id="svg2"
   inkscape:version="0.48.5 r10040"
   sodipodi:docname="Logo for Software Icon SVG.svg"><metadata
     id="metadata262"><rdf:RDF><cc:Work
         rdf:about=""><dc:format>image/svg+xml</dc:format><dc:type
           rdf:resource="http://purl.org/dc/dcmitype/StillImage" /></cc:Work></rdf:RDF></metadata><sodipodi:namedview
     pagecolor="#ffffff"
     bordercolor="#666666"
     borderopacity="1"
     objecttolerance="10"
     gridtolerance="10"
     guidetolerance="10"
     inkscape:pageopacity="0"
     inkscape:pageshadow="2"
     inkscape:window-width="1920"
     inkscape:window-height="1051"
     id="namedview260"
     showgrid="false"
     inkscape:zoom="3.3710936"
     inkscape:cx="128"
     inkscape:cy="128.00001"
     inkscape:window-x="2160"
     inkscape:window-y="420"
     inkscape:window-maximized="1"
     inkscape:current-layer="svg2"
     fit-margin-top="0"
     fit-margin-left="0"
     fit-margin-right="0"
     fit-margin-bottom="0" /><defs
     id="defs4"><style
       type="text/css"
       id="style6">
    .fil2 {fill:black}
    .fil4 {fill:black}
    .fil0 {fill:#333333}
    .fil1 {fill:#999999}
    .fil9 {fill:#E6E6E6}
    .fil8 {fill:white}
    .fil7 {fill:white}
    .fil6 {fill:#CC292B}
    .fil3 {fill:#D12421}
    .fil5 {fill:#CC292B}
   </style></defs><g
     id="g4250"
     transform="matrix(13.330053,0,0,13.330053,-40254.859,-91799.803)"><circle
       sodipodi:ry="271"
       sodipodi:rx="271"
       sodipodi:cy="6566"
       sodipodi:cx="5583"
       transform="translate(-2292.1426,591.67953)"
       style="fill:#ffffff;fill-rule:evenodd"
       class="fil1"
       cx="5583"
       cy="6566"
       r="271"
       id="circle30-4"
       d="m 5854,6566 c 0,149.6692 -121.3308,271 -271,271 -149.6692,0 -271,-121.3308 -271,-271 0,-149.6692 121.3308,-271 271,-271 149.6692,0 271,121.3308 271,271 z" /><path
       inkscape:connector-curvature="0"
       style="fill:#cc292b;fill-rule:evenodd"
       class="fil6"
       d="m 3291.3573,6886.6795 c 148.9999,0 270,121 270,271 0,92 -45,173 -115,222 -28,-38 -74,-61 -122.0001,-61 -4.9999,0 -10.9999,0 -15.9999,0.9999 -5,0 -12,0 -17,0 -90,0 -163,-73 -163,-162 0,-90 73,-163 163,-163 27,0 55,8 77.9999,20 -46.9999,-25.9999 -76.9999,-74.9999 -77.9999,-127.9999 z m 56,536 c -18,4 -37.0001,6 -56,6 -150,0 -271,-122 -271,-271 0,-111 66,-207 162,-248 -4,35 -20,70 -45,94 -40,40 -63,96 -63,154 0,105 76,196 179,214 35,5 68,25 90,51 l 4,0 z m 75.9999,-265 c 0,-73 -58.9999,-133 -131.9999,-133 -74,0 -133,60 -133,133 0,73 59,132 133,132 73,0 131.9999,-59 131.9999,-132 z"
       id="path124-6" /></g></svg>